<?xml version="1.0" encoding="utf-8"?>

<svg id="Layer_1" data-name="Layer 1" xmlns="http://www.w3.org/2000/svg" viewBox="0 0 46.54 49" width="75" height="75"><title>email</title>
<style type="text/css">
	g{transition: all .5s ease;}
	g:hover{fill: #8c8c8c; storke:#8c8c8c;}
</style>
<g>
<path d="M45.31,36.25H43.79a.49.49,0,0,0-.41.21,25.62,25.62,0,0,1-3.52,4,24.12,24.12,0,0,1-4.45,3.28A23.32,23.32,0,0,1,30.24,46a20.67,20.67,0,0,1-5.71.78A25.46,25.46,0,0,1,16,45.31a20.45,20.45,0,0,1-7.06-4.25,20.15,20.15,0,0,1-4.82-7,24.66,24.66,0,0,1-1.79-9.73A21.7,21.7,0,0,1,15.73,4.05a22.31,22.31,0,0,1,8.8-1.72A22.7,22.7,0,0,1,32.4,3.66a18.88,18.88,0,0,1,6.24,3.71,17.14,17.14,0,0,1,4.09,5.74,18,18,0,0,1,1.49,7.37A17.8,17.8,0,0,1,43,27.1a20,20,0,0,1-3.07,5.31,15.45,15.45,0,0,1-4,3.51,8.15,8.15,0,0,1-4.06,1.26,2.53,2.53,0,0,1-1.67-.45,1.86,1.86,0,0,1-.63-1.21,5.57,5.57,0,0,1,.19-2.07,22.6,22.6,0,0,1,.91-2.7L38,11.63a.5.5,0,0,0-.46-.68h-1.4a.51.51,0,0,0-.47.33l-1.21,3.34a7.9,7.9,0,0,0-3.18-3.36,11.51,11.51,0,0,0-6-1.57,12.43,12.43,0,0,0-6.7,1.9,18.07,18.07,0,0,0-5.12,4.82,23.65,23.65,0,0,0-3.26,6.34A20.66,20.66,0,0,0,9.1,29.38a10.61,10.61,0,0,0,.73,3.94,10.06,10.06,0,0,0,2,3.2,9.54,9.54,0,0,0,3,2.18c2.55,1.17,5.64,1,8.7-.05a8.91,8.91,0,0,0,3.71-2.53,3.49,3.49,0,0,0,1,2.08,4.68,4.68,0,0,0,3.44,1.31A10.56,10.56,0,0,0,36.9,38a17.49,17.49,0,0,0,4.78-4.1,22,22,0,0,0,3.5-6,20.05,20.05,0,0,0,1.36-7.39A20.4,20.4,0,0,0,44.81,12,19.42,19.42,0,0,0,40.07,5.5a21.39,21.39,0,0,0-7-4.08A25.55,25.55,0,0,0,24.53,0a25,25,0,0,0-9.48,1.83A24.54,24.54,0,0,0,7.22,6.91,23.88,23.88,0,0,0,0,24.33a26.64,26.64,0,0,0,2.14,11.1,22.48,22.48,0,0,0,5.6,7.7,22.22,22.22,0,0,0,7.88,4.45A29,29,0,0,0,24.53,49a23.18,23.18,0,0,0,6.21-.85,26.46,26.46,0,0,0,5.86-2.4A26.72,26.72,0,0,0,41.74,42a23.24,23.24,0,0,0,4-5,.52.52,0,0,0,0-.51A.52.52,0,0,0,45.31,36.25Zm-18.74-2.9a11.23,11.23,0,0,1-2.45,2.36,7.64,7.64,0,0,1-2.59,1.15,9,9,0,0,1-5.63-.27,6.85,6.85,0,0,1-2.35-1.65A7.64,7.64,0,0,1,12,32.48a8.18,8.18,0,0,1-.56-3.1,18.33,18.33,0,0,1,1-5.75A21.81,21.81,0,0,1,15.25,18a16.73,16.73,0,0,1,4.35-4.29A9.68,9.68,0,0,1,25.07,12a11.8,11.8,0,0,1,2.51.29,8.51,8.51,0,0,1,2.45.94,7.3,7.3,0,0,1,2,1.71,7,7,0,0,1,1.25,2.51L28.65,29.53A14.82,14.82,0,0,1,26.57,33.35Z"/>
</g>
</svg>