<svg id="Layer_1" data-name="Layer 1" xmlns="http://www.w3.org/2000/svg" viewBox="0 0 47.8 44" width="50" height="50"><defs><style>.cls-1{fill:#3c5b9b;}.cls-2{fill:#fff;}</style></defs><title>facebook</title><path class="cls-1" d="M31.55,0a9.77,9.77,0,0,1,7.6,4.4l7.6,13.2a9.74,9.74,0,0,1,0,8.8l-7.6,13.2a9.77,9.77,0,0,1-7.6,4.4H16.25a9.77,9.77,0,0,1-7.6-4.4L1.05,26.4a9.74,9.74,0,0,1,0-8.8L8.65,4.4A9.77,9.77,0,0,1,16.25,0Z" transform="translate(0 0)"/><path class="cls-1" d="M31.55,0a9.77,9.77,0,0,1,7.6,4.4l7.6,13.2a9.74,9.74,0,0,1,0,8.8l-7.6,13.2a9.77,9.77,0,0,1-7.6,4.4H16.25a9.77,9.77,0,0,1-7.6-4.4L1.05,26.4a9.74,9.74,0,0,1,0-8.8L8.65,4.4A9.77,9.77,0,0,1,16.25,0Z" transform="translate(0 0)"/><path class="cls-2" d="M20,37h6V22h4.5l.5-6h-4.8V13.6a1.22,1.22,0,0,1,1.3-1.4h3.4V7h-4.6c-5.1,0-6.3,3.8-6.3,6.3V16H17v6h3Z" transform="translate(0 0)"/></svg>