<?xml version="1.0" encoding="utf-8"?>
<svg id="Layer_1" data-name="Layer 1" xmlns="http://www.w3.org/2000/svg" viewBox="0 0 50 36" width="75" height="75"><title>mail</title>
<style type="text/css">
	g{transition: all .5s ease;}
	g:hover{fill: #8c8c8c; storke:#8c8c8c;}
</style>
<g>
<path d="M0,7V43H50V7ZM48,9v2.51L28.34,28.64A5.16,5.16,0,0,1,25,30a5.16,5.16,0,0,1-3.34-1.36L2,11.51V9Zm0,5.15V36L34.88,25.59ZM15.12,25.59,2,36V14.15ZM2,41V38.51L16.65,26.92l3.7,3.23A7.19,7.19,0,0,0,25,32a7.16,7.16,0,0,0,4.64-1.85l3.7-3.22L48,38.51V41Z" transform="translate(0 -7)"/>
</g>
</svg>