<svg id="Layer_1" data-name="Layer 1" xmlns="http://www.w3.org/2000/svg" viewBox="0 0 50 49.97" width="75" height="75"><title>phone</title>
<style type="text/css">
	g{transition: all .5s ease;}
	g:hover{fill: #8c8c8c; storke:#8c8c8c;}
</style>
<g>
<path d="M48.89,38c-.78-.54-9.21-6.15-10.23-6.77a4,4,0,0,0-3.8.26c-.84.44-3.47,1.94-4.61,2.59a59.81,59.81,0,0,1-7.64-6.7,57.91,57.91,0,0,1-6.69-7.64c.65-1.14,2.14-3.76,2.58-4.6a3.92,3.92,0,0,0,.26-3.83c-.61-1-6.19-9.42-6.78-10.22C11.1-.14,8.91-.36,7.28.78,7.21.83-.09,6.16,0,9,.27,17.55,8.58,27.58,15.5,34.5S32.45,49.73,41,50h.06c2.85,0,8.11-7.21,8.16-7.28A4.06,4.06,0,0,0,50,40.06,2.8,2.8,0,0,0,48.89,38Zm-1.32,3.57C45.89,44,42.1,48,41.05,48v1l0-1c-7.86-.25-17.45-8.25-24.11-14.92S2.25,16.83,2,9c0-1,4-4.84,6.43-6.53A2,2,0,0,1,9.62,2a1,1,0,0,1,.75.26c.54.75,6.12,9.21,6.7,10.12a2.2,2.2,0,0,1-.34,1.82c-.54,1-2.83,5-2.85,5.08l-.29.5.29.5c.07.12,1.77,3,7.32,8.52s8.39,7.24,8.51,7.31l.5.3.51-.29s4-2.32,5.08-2.86a3.18,3.18,0,0,1,1.4-.41.72.72,0,0,1,.42.09c1,.61,9.47,6.25,10.13,6.7a.89.89,0,0,1,.25.59A2.13,2.13,0,0,1,47.57,41.57Z" transform="translate(0 -0.03)"/>
</g>
</svg>