<?xml version="1.0" encoding="utf-8"?>
<!-- Generator: Adobe Illustrator 22.1.0, SVG Export Plug-In . SVG Version: 6.00 Build 0)  -->
<svg version="1.1" id="logo" xmlns="http://www.w3.org/2000/svg" xmlns:xlink="http://www.w3.org/1999/xlink" x="0px" y="0px"
	 viewBox="0 0 203 179.2" style="enable-background:new 0 0 203 179.2;" xml:space="preserve">
<style type="text/css">
	.st0{fill:#FFFFFF;stroke:#9ABD4B;stroke-width:4.4111;stroke-miterlimit:10;}
	.st1{display:none;fill:none;stroke:#9ABD4B;stroke-width:4.4111;stroke-miterlimit:10;}
	.st2{fill:#5D7031;}
	.st3{fill:#666565;}
	.st4{fill:#D8AE58;}
	.st5{fill:#FFFFFF;}
	.st6{fill:none;}
	.st7{fill:#FFFFFF;stroke:#FFFFFF;stroke-width:6;stroke-linejoin:round;stroke-miterlimit:10;}
	.st8{fill:#FFFFFF;stroke:#FFFFFF;stroke-width:6;stroke-miterlimit:10;}
	.st9{fill:#666665;}
	.st10{fill:none;stroke:#666665;stroke-width:2;stroke-linecap:round;stroke-linejoin:round;stroke-miterlimit:10;}
	.st11{fill:none;stroke:#666665;stroke-width:2;stroke-miterlimit:10;}
	.st12{fill:none;stroke:#666665;stroke-width:2.1;stroke-miterlimit:10;}
	.st13{fill:none;stroke:#D42027;stroke-width:2;stroke-linejoin:round;stroke-miterlimit:10;}
	.st14{fill:none;stroke:#D42027;stroke-linejoin:round;stroke-miterlimit:10;}
	.st15{fill:none;stroke:#D42027;stroke-width:2;stroke-linecap:round;stroke-linejoin:round;stroke-miterlimit:10;}
	.st16{fill:none;stroke:#D42027;stroke-miterlimit:10;}
</style>
<g id="border_1_">
	<circle id="XMLID_23_" class="st0" cx="104.8" cy="78.7" r="76.5"/>
	<circle id="border" class="st1" cx="104.8" cy="78.7" r="76.5"/>
</g>
<g id="trees">
	<g id="XMLID_222_">
		<path id="XMLID_225_" class="st2" d="M80.6,63.8h2.2l-8.5-17.7l-8.5,17.7h2.3l-2.2,4.7h2.2l-2.2,4.7h7.4v4.1
			c0,0.6,0.5,1.1,1.1,1.1l0,0c0.6,0,1.1-0.5,1.1-1.1v-4.1h7.4l-2.2-4.7h2.2L80.6,63.8z"/>
		<path id="XMLID_224_" class="st2" d="M75.4,73.2h7.4l-2.2-4.7h2.2l-2.2-4.7h2.2l-8.5-17.7v32.2l0,0c0.6,0,1.1-0.5,1.1-1.1V73.2z"
			/>
	</g>
	<g id="XMLID_217_">
		<path id="XMLID_220_" class="st2" d="M166.9,59.6h3.3l-12.5-26.2l-12.5,26.2h3.3l-3.3,6.9h3.3l-3.3,6.9h10.9v6
			c0,0.9,0.7,1.6,1.6,1.6l0,0c0.9,0,1.6-0.7,1.6-1.6v-6h10.9l-3.3-6.9h3.3L166.9,59.6z"/>
		<path id="XMLID_219_" class="st2" d="M159.3,73.4h10.9l-3.3-6.9h3.3l-3.3-6.9h3.3l-12.5-26.2V81l0,0c0.9,0,1.6-0.7,1.6-1.6V73.4z"
			/>
	</g>
	<g id="XMLID_212_">
		<path id="XMLID_216_" class="st2" d="M139.9,61.6h1.9l-7.3-15.3l-7.3,15.3h1.9l-1.9,4h1.9l-1.9,4h6.4v3.5c0,0.5,0.4,0.9,0.9,0.9
			l0,0c0.5,0,0.9-0.4,0.9-0.9v-3.5h6.4l-1.9-4h1.9L139.9,61.6z"/>
		<path id="XMLID_215_" class="st2" d="M135.4,69.7h6.4l-1.9-4h1.9l-1.9-4h1.9l-7.3-15.3v27.8l0,0c0.5,0,0.9-0.4,0.9-0.9L135.4,69.7
			L135.4,69.7z"/>
	</g>
	<g id="XMLID_209_">
		<path id="XMLID_211_" class="st2" d="M57.5,60.5h2.8L49.6,38.9L38.9,60.5h2.8l-2.8,5.7h2.8l-2.8,5.7h9.4v4.9
			c0,0.7,0.6,1.3,1.3,1.3l0,0c0.7,0,1.3-0.6,1.3-1.3v-4.9h9.4l-2.8-5.7h2.8L57.5,60.5z"/>
		<path id="XMLID_210_" class="st2" d="M51,71.9h9.4l-2.8-5.7h2.8l-2.8-5.7h2.8L49.6,38.9v39.3l0,0c0.7,0,1.3-0.6,1.3-1.3v-5H51z"/>
	</g>
</g>
<g id="full_name">
	<path id="XMLID_135_" class="st3" d="M27.7,119.7l-0.9-1.9l-11.7,5.7l-0.9-1.8l11.7-5.7l-0.9-1.9l1.9-0.9l2.7,5.6L27.7,119.7z"/>
	<path id="XMLID_149_" class="st3" d="M33.2,124.9l-13.1,7.8l-1-1.7l6.1-3.7l-1.1-1.8l-6.1,3.7l-1-1.7l13.1-7.8l1,1.7l-5.1,3
		l1.1,1.8l5.1-3L33.2,124.9z"/>
	<path id="XMLID_153_" class="st3" d="M26.7,136l-1.2-1.6l-3.1,1.7l-1.1-1.6l13.7-7l1.2,1.7l-11,10.8l-1.2-1.7L26.7,136z
		 M28.3,134.4l4.1-3.7l0,0l-4.8,2.7L28.3,134.4z"/>
	<path id="XMLID_156_" class="st3" d="M43.5,137.9L32.1,148l-1.3-1.5l7-6.2l-7.9,5.2l-0.9-1.1l6.2-7.1l0,0l-7,6.2l-1.3-1.5l11.4-10
		l1.8,2.1l-6,7l0,0l7.7-5L43.5,137.9z"/>
	<path id="XMLID_180_" class="st3" d="M44.4,141.8l-2.6,2.7l1.5,1.4l-1.5,1.6l-1.5-1.4l-3.4,3.6l2.2,2.1l-1.5,1.6l-3.7-3.5l10.5-11
		l3.6,3.4l-1.5,1.6L44.4,141.8z"/>
	<path id="XMLID_182_" class="st3" d="M49,148.6l0.4-0.5c0.7-0.8,0.7-1.5,0.3-1.9c-0.4-0.3-1-0.2-1.5,0.3c-0.4,0.5-0.7,1-0.7,1.8
		l-0.4,3.7c-0.2,1.5-0.3,2.4-1.4,3.8c-1.4,1.7-3.2,1.8-4.5,0.7c-1.3-1-1.5-2.8-0.1-4.5l1-1.2l1.6,1.3l-0.9,1.1
		c-0.6,0.7-0.6,1.3-0.2,1.7c0.4,0.3,1,0.2,1.6-0.5c0.5-0.6,0.7-1.2,0.8-2l0.2-2.9c0.2-2,0.2-2.6,1.5-4.3c1.3-1.6,3.1-1.8,4.4-0.7
		c1.3,1.1,1.4,2.9,0.1,4.5l-0.7,0.8L49,148.6z"/>
	<path id="XMLID_199_" class="st3" d="M52.5,164.4l1.6-6.2c-0.2-0.1-0.5-0.3-0.6-0.3l-3.3,5.2l-1.7-1.1l8.1-12.8l2.9,1.8
		c1.6,1,1.4,3.2,0.1,5.2c-1.2,1.9-2.6,2.7-3.8,2.8l-1.7,6.6L52.5,164.4z M54.8,155.9l0.5,0.3c1.1,0.7,1.5,0.7,2.7-1.2
		c0.7-1,1-1.9,0.3-2.4l-1.1-0.7L54.8,155.9z"/>
	<path id="XMLID_203_" class="st3" d="M57.6,167.3l-1.8-1l7.3-13.3l1.8,1L57.6,167.3z"/>
	<path id="XMLID_218_" class="st3" d="M63.7,170.3l-2-0.9l4.1-14.8l2,0.9l-3.4,10.8l0,0l6.1-9.6l2,0.9L63.7,170.3z"/>
	<path id="XMLID_227_" class="st3" d="M74.5,160.6l-1.3,3.5l1.9,0.7l-0.7,2l-1.9-0.7l-1.7,4.6l2.9,1.1l-0.7,2l-4.8-1.8l5.2-14.3
		l4.6,1.7l-0.7,2L74.5,160.6z"/>
	<path id="XMLID_229_" class="st3" d="M79.5,175.8l-0.2-6.4c-0.3-0.1-0.5-0.2-0.6-0.2l-1.6,5.9l-1.9-0.5l4-14.6l3.3,0.9
		c1.9,0.5,2.3,2.6,1.6,5c-0.6,2.2-1.7,3.4-2.8,3.8l0.3,6.8L79.5,175.8z M79.2,167l0.6,0.2c1.3,0.4,1.7,0.2,2.3-1.9
		c0.3-1.2,0.4-2.1-0.4-2.4l-1.3-0.3L79.2,167z"/>
	<path id="XMLID_232_" class="st3" d="M91.4,174.6l-1.9-0.3l-0.9,3.4l-1.9-0.3l4.5-14.7l2,0.3l0.1,15.4l-2-0.3L91.4,174.6z
		 M91.4,172.4l0.2-5.5l0,0l-1.4,5.3L91.4,172.4z"/>
	<path id="XMLID_235_" class="st3" d="M102.5,163.9l-1,15.2l-2-0.1l-1.4-8.8l0,0l-0.6,8.7l-2-0.1l1-15.2l2.1,0.1l1.3,8.5l0,0
		l0.6-8.4L102.5,163.9z"/>
	<path id="XMLID_237_" class="st3" d="M107.8,168.2V167c0-0.5-0.4-1.2-1-1.2c-0.7,0-1,0.8-1,1.3l0.2,8.8c0,0.5,0.3,1.2,1.1,1.2
		c0.8,0,1.1-0.7,1.1-2l-0.1-2.3H107v-2.2l3-0.1l0.1,4.7c0,2.1-0.8,3.9-2.9,4c-2.3,0-3.1-1.8-3.1-3.3l-0.2-8.8c0-1.5,0.7-3.4,3-3.5
		c2.1,0,3,1.8,3.1,3.3v1.2L107.8,168.2z"/>
	<path id="XMLID_239_" class="st3" d="M117,176.2l0.2,2.2l-4.7,0.5l-1.5-15.1l2-0.2l1.3,13L117,176.2z"/>
	<path id="XMLID_241_" class="st3" d="M119.1,164.9l0.6,3.7l2-0.3l0.4,2.1l-2,0.3l0.8,4.9l3.1-0.5l0.4,2.1l-5.1,0.9l-2.5-15l4.8-0.8
		l0.4,2.1L119.1,164.9z"/>
	<path id="XMLID_243_" class="st3" d="M130.9,175.6l-3.4-5.5c-0.3,0.1-0.6,0.1-0.6,0.2l1.5,5.9l-2,0.5l-3.7-14.7l3.3-0.8
		c1.9-0.5,3.3,1.1,3.9,3.5c0.6,2.2,0.2,3.8-0.6,4.6l3.7,5.8L130.9,175.6z M126.3,168.1l0.6-0.2c1.3-0.3,1.6-0.6,1-2.8
		c-0.3-1.2-0.7-2-1.5-1.9l-1.3,0.3L126.3,168.1z"/>
	<path id="XMLID_246_" class="st3" d="M134.8,163l-0.2-0.6c-0.3-1-0.9-1.4-1.4-1.3c-0.5,0.2-0.7,0.8-0.5,1.4
		c0.2,0.6,0.5,1.1,1.1,1.6l2.9,2.3c1.2,0.9,1.9,1.5,2.5,3.2c0.7,2.1-0.2,3.7-1.7,4.2c-1.6,0.5-3.2-0.2-3.9-2.3l-0.5-1.5l1.9-0.7
		l0.5,1.3c0.3,0.9,0.8,1.2,1.3,1s0.7-0.8,0.4-1.6s-0.7-1.3-1.3-1.7l-2.4-1.6c-1.6-1.3-2.2-1.6-2.8-3.5c-0.7-1.9,0.1-3.6,1.7-4.2
		c1.6-0.6,3.2,0.3,3.9,2.2l0.3,1L134.8,163z"/>
	<path id="XMLID_248_" class="st3" d="M147.8,165.5l-1.8,0.9l1.2,3.4l-1.7,0.8l-4.5-14.7l1.8-0.9l8.7,12.6l-1.8,0.9L147.8,165.5z
		 M146.5,163.6l-2.9-4.6l0,0l1.8,5.2L146.5,163.6z"/>
	<path id="XMLID_251_" class="st3" d="M150.9,155.3l-0.3-0.5c-0.5-0.9-1.2-1.2-1.6-1c-0.4,0.3-0.5,0.9-0.2,1.5s0.7,0.9,1.4,1.3
		l3.3,1.6c1.3,0.7,2.2,1.1,3.1,2.7c1.1,1.9,0.5,3.6-0.9,4.5c-1.4,0.8-3.2,0.4-4.3-1.4l-0.8-1.4l1.8-1l0.7,1.2c0.5,0.8,1,1,1.5,0.7
		c0.4-0.3,0.5-0.9,0.1-1.7c-0.4-0.7-0.9-1.1-1.6-1.4l-2.6-1.1c-1.8-0.9-2.4-1.1-3.5-2.9c-1-1.8-0.7-3.5,0.8-4.4s3.2-0.3,4.3,1.4
		l0.5,0.9L150.9,155.3z"/>
	<path id="XMLID_253_" class="st3" d="M156.9,151.4l-0.4-0.5c-0.6-0.9-1.3-1.1-1.7-0.8s-0.5,0.9-0.1,1.5c0.4,0.5,0.7,0.9,1.5,1.2
		l3.5,1.4c1.4,0.5,2.3,0.9,3.3,2.4c1.3,1.8,0.8,3.6-0.5,4.5s-3.1,0.7-4.4-1.1l-0.9-1.3l1.7-1.2l0.8,1.2c0.5,0.8,1.1,0.9,1.5,0.6
		c0.4-0.3,0.5-0.9-0.1-1.7c-0.5-0.7-1-1-1.7-1.3l-2.7-0.9c-1.9-0.8-2.5-0.9-3.7-2.6c-1.2-1.7-0.9-3.5,0.5-4.5s3.2-0.6,4.4,1.1
		l0.6,0.9L156.9,151.4z"/>
	<path id="XMLID_255_" class="st3" d="M163.6,144.7l5.6,6.7c1,1.2,1.5,3.2-0.1,4.5c-1.7,1.4-3.5,0.5-4.5-0.7l-5.6-6.7
		c-1-1.2-1.6-3.1,0.2-4.5C160.7,142.7,162.6,143.5,163.6,144.7z M162,146c-0.3-0.3-1.1-0.8-1.5-0.4c-0.5,0.5-0.2,1.3,0,1.6l5.6,6.7
		c0.3,0.4,1.1,0.8,1.6,0.4c0.4-0.4,0.2-1.2-0.1-1.6L162,146z"/>
	<path id="XMLID_259_" class="st3" d="M168.3,141.8l-0.8-0.9c-0.3-0.3-1.1-0.6-1.5-0.2c-0.5,0.5-0.2,1.3,0.1,1.6l6.2,6.2
		c0.3,0.3,1.1,0.7,1.6,0.2c0.4-0.4,0.1-1.2-0.2-1.5l-0.8-0.9l1.5-1.4l0.8,0.9c1.1,1.1,1.7,3.1,0.3,4.5c-1.6,1.6-3.5,0.8-4.6-0.2
		l-6.2-6.3c-1.1-1.1-1.8-3-0.2-4.6c1.5-1.4,3.4-0.8,4.5,0.3l0.8,0.9L168.3,141.8z"/>
	<path id="XMLID_261_" class="st3" d="M180.2,144.9l-1.4,1.5l-11.3-10.1l1.4-1.5L180.2,144.9z"/>
	<path id="XMLID_263_" class="st3" d="M181.4,137.9l-1.2,1.5l2.5,2.5l-1.2,1.5l-10.4-11.2l1.3-1.6l13.4,7.6l-1.3,1.6L181.4,137.9z
		 M179.5,136.8l-4.7-2.9l0,0l3.9,3.9L179.5,136.8z"/>
	<path id="XMLID_266_" class="st3" d="M178.5,125.5l-1.2,1.7l10.7,7.4l-1.2,1.7l-10.7-7.4l-1.2,1.7l-1.8-1.2l3.5-5.1L178.5,125.5z"
		/>
	<path id="XMLID_268_" class="st3" d="M191.4,129.4l-1,1.7l-13-7.8l1-1.7L191.4,129.4z"/>
	<path id="XMLID_270_" class="st3" d="M184.6,116.6l7.8,4c1.4,0.7,2.6,2.4,1.7,4.2c-1,2-3.1,1.8-4.4,1.1l-7.8-4
		c-1.4-0.7-2.6-2.3-1.6-4.3C181.2,115.9,183.3,115.9,184.6,116.6z M183.7,118.4c-0.4-0.2-1.3-0.3-1.6,0.2c-0.3,0.6,0.3,1.3,0.6,1.5
		l7.8,4c0.4,0.2,1.3,0.3,1.6-0.3c0.3-0.5-0.3-1.2-0.7-1.4L183.7,118.4z"/>
	<path id="XMLID_273_" class="st3" d="M184.6,108.4l14,5.8l-0.8,1.9l-8.8-1.5l0,0l8,3.3l-0.8,1.9l-14-5.8l0.8-2l8.5,1.5l0,0
		l-7.8-3.2L184.6,108.4z"/>
</g>
<g id="website">
	<g id="XMLID_491_">
		<path id="XMLID_515_" class="st3" d="M75.3,133.9h-1.5l-0.3,2.1H72l1.8-8.8h1.6l1.8,8.8h-1.6L75.3,133.9z M75.1,132.6l-0.5-3.2
			l0,0l-0.5,3.2H75.1z"/>
		<path id="XMLID_513_" class="st3" d="M83.7,127.2v8.8h-1.6l-1.6-5.1l0,0v5.1h-1.6v-8.8h1.7l1.5,4.8l0,0v-4.9L83.7,127.2
			L83.7,127.2z"/>
		<path id="XMLID_511_" class="st3" d="M88.6,129.7V129c0-0.3-0.3-0.7-0.7-0.7c-0.6,0-0.8,0.5-0.8,0.7v5.1c0,0.3,0.2,0.7,0.8,0.7
			c0.6,0,0.9-0.4,0.9-1.1v-1.3h-0.9v-1.3h2.3v2.7c0,1.2-0.7,2.3-2.3,2.3c-1.8,0-2.4-1.1-2.4-2V129c0-0.9,0.6-2,2.4-2
			c1.6,0,2.3,1.1,2.3,2v0.7H88.6z"/>
		<path id="XMLID_509_" class="st3" d="M95.7,134.7v1.3h-3.6v-8.8h1.6v7.6h2V134.7z"/>
		<path id="XMLID_507_" class="st3" d="M99,128.4v2.2h1.6v1.3H99v2.9h2.4v1.3h-4v-8.8h3.8v1.3H99V128.4z"/>
		<path id="XMLID_504_" class="st3" d="M106.6,136l-1.5-3.6c-0.2,0-0.4,0-0.5,0v3.6h-1.5v-8.8h2.6c1.5,0,2.2,1.1,2.2,2.5
			c0,1.3-0.6,2.2-1.3,2.5l1.7,3.8H106.6z M104.6,131.1h0.5c1,0,1.3-0.1,1.3-1.4c0-0.7-0.2-1.3-0.8-1.3h-1V131.1z"/>
		<path id="XMLID_502_" class="st3" d="M112.7,129.6v-0.4c0-0.6-0.3-1-0.7-1c-0.4,0-0.7,0.3-0.7,0.7s0.1,0.7,0.4,1.1l1.6,1.8
			c0.6,0.7,1,1.2,1,2.2c0,1.3-1.1,2-2.3,2c-1.3,0-2.3-0.7-2.3-2v-0.9h1.6v0.8c0,0.5,0.3,0.8,0.7,0.8c0.4,0,0.7-0.3,0.7-0.8
			s-0.2-0.8-0.5-1.2l-1.3-1.3c-0.8-1-1.2-1.3-1.2-2.5s1-2,2.3-2s2.3,0.8,2.3,2v0.6L112.7,129.6L112.7,129.6z"/>
		<path id="XMLID_500_" class="st3" d="M116.1,134.4h1.6v1.6h-1.6V134.4z"/>
		<path id="XMLID_497_" class="st3" d="M124.1,129v5.1c0,0.9-0.7,2-2.3,2c-1.7,0-2.4-1.1-2.4-2V129c0-0.9,0.6-2,2.4-2
			C123.4,127,124.1,128.1,124.1,129z M122.5,129c0-0.3-0.3-0.7-0.7-0.7c-0.6,0-0.8,0.5-0.8,0.7v5.1c0,0.3,0.2,0.8,0.8,0.8
			c0.5,0,0.7-0.5,0.7-0.8V129z"/>
		<path id="XMLID_494_" class="st3" d="M129.5,136l-1.5-3.6c-0.2,0-0.4,0-0.5,0v3.6h-1.6v-8.8h2.6c1.5,0,2.2,1.1,2.2,2.5
			c0,1.3-0.6,2.2-1.3,2.5l1.7,3.8H129.5z M127.5,131.1h0.5c1,0,1.3-0.1,1.3-1.4c0-0.7-0.2-1.3-0.8-1.3h-1V131.1z"/>
		<path id="XMLID_492_" class="st3" d="M135.7,129.7V129c0-0.3-0.3-0.7-0.7-0.7c-0.6,0-0.8,0.5-0.8,0.7v5.1c0,0.3,0.2,0.7,0.8,0.7
			s0.9-0.4,0.9-1.1v-1.3H135v-1.3h2.3v2.7c0,1.2-0.7,2.3-2.3,2.3c-1.8,0-2.4-1.1-2.4-2V129c0-0.9,0.6-2,2.4-2c1.6,0,2.3,1.1,2.3,2
			v0.7H135.7z"/>
	</g>
</g>
<g id="year">
	<g id="XMLID_427_">
		<path id="XMLID_446_" class="st3" d="M80.9,31.3v2.4h1.8v1.4h-1.8v3.2h2.7v1.4h-4.5v-9.8h4.2v1.4C83.3,31.3,80.9,31.3,80.9,31.3z"
			/>
		<path id="XMLID_444_" class="st3" d="M88.7,32.6v-0.4c0-0.7-0.4-1.1-0.8-1.1s-0.8,0.3-0.8,0.8c0,0.4,0.1,0.7,0.5,1.2l1.8,2
			c0.7,0.8,1.1,1.3,1.1,2.5c0,1.4-1.2,2.2-2.6,2.2s-2.5-0.8-2.5-2.2v-1h1.7v0.9c0,0.6,0.3,0.9,0.8,0.9c0.4,0,0.8-0.3,0.8-0.9
			c0-0.5-0.2-0.9-0.6-1.3l-1.5-1.5c-0.9-1.1-1.3-1.4-1.3-2.7s1.1-2.2,2.6-2.2s2.5,0.9,2.5,2.2v0.7L88.7,32.6L88.7,32.6z"/>
		<path id="XMLID_442_" class="st3" d="M97.6,31.2h-1.8v8.4H94v-8.4h-1.8v-1.4h5.4C97.6,29.8,97.6,31.2,97.6,31.2z"/>
		<path id="XMLID_440_" class="st3" d="M98.6,37.9h1.8v1.8h-1.8V37.9z"/>
		<path id="XMLID_438_" class="st3" d="M106.4,29.9h1.8v9.8h-1.8v-8.4h-0.8v-1L106.4,29.9z"/>
		<path id="XMLID_435_" class="st3" d="M110.1,33.7c0-0.1,0-1.2,0-1.4c0-1.5,1-2.6,2.8-2.6s2.6,1.2,2.6,2.2c0,0,0,4.7,0,4.9
			c0,1.6-1.1,2.9-2.7,2.9c-1.7,0-2.4-1.2-2.4-2.2v-0.8h1.7v0.8c0,0.4,0.3,0.8,0.8,0.8c0.7,0,0.9-0.7,0.9-1.5v-1.6
			c-0.2,0.3-0.6,0.5-1.2,0.5C110.9,35.9,110.1,34.8,110.1,33.7z M111.9,33.7c0,0.5,0.4,0.8,0.9,0.8c0.6,0,0.9-0.3,0.9-0.5v-2
			c0-0.3-0.3-0.8-0.8-0.8c-0.7,0-1,0.4-1,1.2C111.9,32.4,111.9,33.6,111.9,33.7z"/>
		<path id="XMLID_431_" class="st3" d="M123.1,36.9c0,1.6-1.1,2.9-2.8,2.9c-1.7,0-2.9-1.3-2.9-2.9c0-1.4,0.7-2.1,1.6-2.5
			c-0.6-0.3-1.3-1.2-1.3-2.2c0-1.5,0.9-2.5,2.5-2.5s2.5,0.9,2.5,2.5c0,1-0.6,1.9-1.3,2.2C122.4,34.8,123.1,35.5,123.1,36.9z
			 M121.4,36.9c0-0.9-0.2-1.6-1-1.8c-0.8,0.2-1.1,0.8-1.1,1.8s0.4,1.5,1.2,1.5C121.1,38.4,121.4,37.6,121.4,36.9z M119.5,32.3
			c0,0.5,0.2,1,0.9,1.2c0.6-0.2,0.8-0.7,0.8-1.2c0-0.7-0.3-1.2-0.8-1.2S119.5,31.6,119.5,32.3z"/>
		<path id="XMLID_428_" class="st3" d="M130.5,35.8c0,0.1,0,1.2,0,1.4c0,1.5-1,2.6-2.8,2.6c-1.8,0-2.6-1.2-2.6-2.2c0,0,0-4.7,0-4.9
			c0-1.6,1-2.9,2.6-2.9c1.7,0,2.5,1.2,2.5,2.2v0.7h-1.7V32c0-0.4-0.3-0.8-0.8-0.8c-0.7,0-0.9,0.8-0.9,1.5v1.5
			c0.2-0.3,0.6-0.5,1.2-0.5C129.7,33.7,130.5,34.7,130.5,35.8z M128.7,35.8c0-0.5-0.4-0.8-0.9-0.8c-0.5,0-0.9,0.3-0.9,0.5v2
			c0,0.3,0.3,0.8,0.8,0.8c0.7,0,1-0.4,1-1.2C128.7,37.1,128.7,36,128.7,35.8z"/>
	</g>
</g>
<g id="three_dots">
	<g id="XMLID_194_">
		<circle id="XMLID_197_" class="st4" cx="104.9" cy="14.1" r="3.9"/>
		
			<ellipse id="XMLID_195_" transform="matrix(0.7714 -0.6364 0.6364 0.7714 15.9931 68.3593)" class="st5" cx="103.1" cy="11.9" rx="0.8" ry="0.5"/>
		<ellipse id="XMLID_186_" class="st5" cx="104.9" cy="15.5" rx="2" ry="1"/>
	</g>
	<g id="XMLID_191_">
		<circle id="XMLID_193_" class="st4" cx="82.7" cy="19.3" r="3.9"/>
		
			<ellipse id="XMLID_192_" transform="matrix(0.7714 -0.6364 0.6364 0.7714 7.6566 55.4696)" class="st5" cx="81" cy="17.1" rx="0.8" ry="0.5"/>
		<ellipse id="XMLID_187_" class="st5" cx="82.7" cy="20.6" rx="2" ry="1"/>
	</g>
	<g id="XMLID_188_">
		<circle id="XMLID_190_" class="st4" cx="126.3" cy="19.3" r="3.9"/>
		
			<ellipse id="XMLID_189_" transform="matrix(0.7714 -0.6364 0.6364 0.7714 17.5793 83.1718)" class="st5" cx="124.5" cy="17.1" rx="0.8" ry="0.5"/>
		<ellipse id="XMLID_185_" class="st5" cx="126.3" cy="20.6" rx="2" ry="1"/>
	</g>
</g>
<polygon id="XMLID_196_" class="st6" points="96,129.6 103.7,129.6 103.7,129.6 "/>
<g id="fish">
	<path id="XMLID_43_" class="st7" d="M158.5,96.1c0,0-10.3-1.2-14.2,7.6c0,0-1.5,6.1-5.5,8c0,0,12.6-3.5,16.7-6.3
		c0,0,4.6-5.2,6.3-6.5"/>
	<path id="XMLID_206_" class="st3" d="M70.4,80.6"/>
	<path id="XMLID_40_" class="st8" d="M117,70c0,0-2.8-1.5-4.3-1.6c0,0-11.1-10.6-13.7-12c0,0-6.7,11-9.7,11.9c0,0-0.8,1,2.7,1.3
		c0,0,3.3,0,3.6,0.4c0,0,1.2,0.4,1.1,1.1"/>
	<path id="XMLID_37_" class="st8" d="M69.4,72.5c0,0-5-3.1-12.8-3.5c0,0-2.3,0.5-4.2,4.3c0,0,0,0.7,1.2,1.3"/>
	<path id="XMLID_11_" class="st8" d="M49.2,90.7C47.7,90.5,36,95.4,36,95.4C12.3,110.2,3.1,108,3.1,108c0-5,8.9-19.2,8.9-19.2
		c4.7-5.8,1.9-9.6,1.9-9.6C3.6,57.7,4.8,57.5,4.8,57.5c5.8-0.1,27.9,10.1,27.9,10.1c3.8,2.1,10.5,4.7,10.5,4.7l5.1,2
		c1.5,0.8,13.2,0.5,13.2,0.5c23.6-6.8,94.1-6.3,94.1-6.3l7.8,0.6c0,0,30.4,3.7,35.1,11.9c0,0-7.2,3.8-11.5,7.8c0,0,6.1-0.7,7.5-1
		l5.3-0.4c0,0,0.4,0.4-7.7,6.3c0,0-5.5,2.8-12.5,4.8l-7.3,1.6c-6,1.5-11.7,4.4-16.8,5.4c0,0-14.7,3-39,1.3s-16.6-2.7-35.7-7.3
		S61.2,92.6,49.2,90.7z"/>
	<path id="XMLID_12_" class="st8" d="M116.5,100.4c0,0-3.6,15.2-10.3,17.4c0,0-3-3-5.1-8.4c-0.7-1.9-1.3-4-1.7-6.4
		c0,0,0.3-2.4,2.3-2.6c0,0,3.2,1.1,4.7,0"/>
	<path id="XMLID_5_" class="st8" d="M76.7,97.1c0,0-4,6.3-9.8,10.1c0,0-2.8,3-4.1,2.7c-0.7-0.2-0.3-2.2-0.1-4.9c0,0-1.6-5.2-5.4-8.7
		c0,0-1.8-1.5,0-2.3c0,0,0.4,0.1,5-1"/>
	<g id="XMLID_294_">
		<path id="XMLID_315_" class="st6" d="M38.9,95"/>
	</g>
	<g id="XMLID_114_">
		<path id="XMLID_312_" class="st6" d="M38.9,69.6"/>
	</g>
	<g id="XMLID_173_">
		<polygon id="XMLID_176_" class="st9" points="8.2,64.6 29.6,72.8 7.5,66.5 		"/>
	</g>
	<g id="XMLID_170_">
		<polygon id="XMLID_316_" class="st9" points="12.4,74.7 23.9,77 12.2,76.7 		"/>
	</g>
	<g id="XMLID_167_">
		<polygon id="XMLID_174_" class="st9" points="13.6,85.2 23.9,84 14,87.2 		"/>
	</g>
	<g id="XMLID_164_">
		<polygon id="XMLID_171_" class="st9" points="10.4,90.9 27.6,88.1 10.8,92.8 		"/>
	</g>
	<g id="XMLID_161_">
		<polygon id="XMLID_168_" class="st9" points="6.4,97.2 28.6,90.8 7,99.1 		"/>
	</g>
	<g id="XMLID_158_">
		<polygon id="XMLID_165_" class="st9" points="3.4,102.7 28.3,95 4.1,104.6 		"/>
	</g>
	<path id="XMLID_157_" class="st9" d="M186,78.9c0-0.4-0.2-0.8-0.6-0.8c-0.1,0-0.5-0.2-0.7-0.2c-0.3-0.1-0.7-0.1-1,0
		c-0.2,0-1,0.3-1.1,0.4c-0.6,0.3-0.6,0.4-1,1c-0.2,0.4-0.1,1.2,0.3,1.4c0.9,0.4,1.4,1.1,2.4,0.9c0.3,0,0.7-0.1,0.9-0.4
		c0.3-0.3,0.4-0.6,0.5-0.9s0.1-0.3,0.2-0.6"/>
	<path id="XMLID_22_" class="st10" d="M43.4,91.9c0,0,4.6-6.3,44.9,9.8c0,0-0.8-0.1,11.1,3.3"/>
	<path id="XMLID_9_" class="st11" d="M114.5,106.6c5.6,0.2,16.6,0.6,24.3,0.5c0,0,1.6,0,4.2-0.1"/>
	<g id="XMLID_20_">
		<path id="XMLID_27_" class="st9" d="M158.5,96.2c-1.4-0.1-2.9,0.1-4.2,0.3c-0.3,0.1-0.7,0.2-1,0.2c-0.3,0.1-0.7,0.2-1,0.3
			c-0.3,0.1-0.7,0.2-1,0.4c-0.3,0.1-0.6,0.3-0.9,0.5c-0.3,0.2-0.6,0.3-0.9,0.5l-0.9,0.6c-0.3,0.2-0.5,0.5-0.8,0.7s-0.5,0.5-0.7,0.7
			c-0.2,0.3-0.5,0.5-0.7,0.8l-0.6,0.9c-0.4,0.6-0.6,1.2-1,1.8v-0.1c-0.2,0.9-0.5,1.7-0.8,2.5s-0.7,1.6-1.1,2.3
			c-0.4,0.7-1,1.5-1.6,2.1c-0.3,0.3-0.6,0.6-1,0.9c-0.2,0.1-0.4,0.3-0.6,0.4l-0.6,0.3l-0.6-1.5c2.8-0.9,5.6-1.9,8.4-2.9
			c1.4-0.5,2.8-1,4.1-1.6c0.7-0.3,1.3-0.5,2-0.8c0.6-0.3,1.3-0.6,1.9-1l-0.1,0.1c1.1-1.1,2.2-2.2,3.3-3.2c0.6-0.5,1.1-1,1.7-1.5
			c0.6-0.5,1.2-1,1.9-1.4h0.1v0.1c-1.1,1.1-2,2.3-2.9,3.5l-2.8,3.5l-0.1,0.1l0,0c-0.3,0.2-0.7,0.5-1,0.7l-1,0.6
			c-0.7,0.4-1.4,0.7-2.1,1c-0.7,0.3-1.4,0.6-2.1,0.9c-0.7,0.3-1.4,0.5-2.1,0.8c-1.4,0.5-2.9,0.9-4.3,1.3c-1.4,0.4-2.9,0.8-4.3,1.2
			c-0.4,0.1-0.9-0.2-1-0.6s0.1-0.7,0.4-0.9l0,0l0.5-0.2c0.2-0.1,0.3-0.2,0.5-0.3c0.3-0.2,0.6-0.5,0.9-0.7c0.5-0.5,1-1.1,1.5-1.8
			c0.4-0.7,0.8-1.4,1.1-2.1s0.6-1.5,0.8-2.2v-0.1l0,0c0.4-0.6,0.7-1.3,1.1-1.9l0.7-0.9c0.2-0.3,0.5-0.5,0.8-0.8s0.5-0.5,0.8-0.8
			c0.3-0.2,0.6-0.5,0.9-0.7l0.9-0.6c0.3-0.2,0.7-0.3,1-0.5s0.7-0.3,1-0.4s0.7-0.3,1-0.3c0.4-0.1,0.7-0.2,1.1-0.3
			c0.4-0.1,0.7-0.2,1.1-0.2c1.4-0.2,2.9-0.3,4.3-0.1c0.1,0,0.1,0.1,0.1,0.1C158.6,96.2,158.5,96.2,158.5,96.2z"/>
	</g>
	<g id="XMLID_18_">
		<path id="XMLID_26_" class="st9" d="M117,70c-0.7-0.3-1.4-0.5-2.2-0.7c-0.4-0.1-0.7-0.2-1.1-0.3c-0.4-0.1-0.7-0.1-1-0.1h-0.1
			l-0.1-0.1c-2.4-1.9-4.7-3.9-7-5.9c-1.2-1-2.3-2-3.5-2.9c-0.6-0.5-1.2-1-1.7-1.4c-0.3-0.2-0.6-0.5-0.9-0.7s-0.6-0.4-0.8-0.6
			l1.3-0.4c-0.7,1.1-1.4,2.2-2.1,3.3s-1.5,2.1-2.3,3.2c-0.8,1-1.6,2.1-2.5,3c-0.5,0.5-0.9,1-1.5,1.4c-0.3,0.2-0.5,0.4-0.8,0.6
			s-0.6,0.4-1.1,0.5l0.3-0.2c0.1-0.1,0-0.1,0.1-0.2c0-0.1,0-0.1,0-0.1l0,0c0,0,0,0,0.1,0.1c0.1,0,0.1,0.1,0.2,0.1s0.2,0.1,0.3,0.1
			c0.5,0.2,1,0.2,1.6,0.3l0,0c0.6,0,1.2,0.1,1.9,0.2c0.3,0,0.6,0.1,0.9,0.2c0.2,0,0.3,0.1,0.5,0.1c0.1,0,0.2,0.1,0.2,0.1
			c0.1,0,0.2,0.1,0.3,0.2l-0.1-0.1c0.3,0.1,0.5,0.3,0.7,0.5s0.4,0.5,0.3,0.8c0-0.3-0.2-0.5-0.4-0.6c-0.2-0.1-0.5-0.2-0.7-0.3
			L95.7,70h-0.1c-0.1,0-0.1,0-0.2,0s-0.3,0-0.4,0c-0.3,0-0.6,0-0.9,0c-0.6,0-1.2,0-1.8,0.1l0,0c-0.6,0-1.2-0.1-1.8-0.2
			c-0.2,0-0.3-0.1-0.5-0.1s-0.3-0.1-0.5-0.2S89.1,69.3,89,69c-0.1-0.2-0.1-0.4-0.1-0.6s0.1-0.3,0.2-0.5l0.1-0.1l0.2-0.1
			c0.4-0.2,0.9-0.5,1.3-1c0.4-0.4,0.8-0.9,1.2-1.4c0.8-1,1.6-2,2.3-3c0.7-1,1.5-2.1,2.2-3.2c0.7-1.1,1.4-2.2,2.1-3.2l0.5-0.8
			l0.8,0.5c0.4,0.2,0.7,0.5,1,0.7s0.6,0.5,0.9,0.7c0.6,0.5,1.2,1,1.8,1.5c1.1,1,2.3,2.1,3.4,3.1c2.2,2.1,4.4,4.3,6.4,6.5L113,68
			c0.4,0,0.8,0.2,1.2,0.3c0.4,0.1,0.7,0.3,1.1,0.5C115.7,69.2,116.4,69.6,117,70z"/>
	</g>
	<g id="XMLID_146_">
		<path id="XMLID_148_" class="st9" d="M111.6,70L99.7,59.4l12.5,9.9c0.2,0.2,0.3,0.5,0.1,0.7C112.2,70.2,111.9,70.2,111.6,70
			C111.6,70.1,111.6,70.1,111.6,70z"/>
	</g>
	<g id="XMLID_143_">
		<path id="XMLID_145_" class="st9" d="M106.8,70l-7.9-7.7l8.5,6.9c0.2,0.2,0.2,0.5,0.1,0.7C107.4,70.2,107.1,70.2,106.8,70
			L106.8,70z"/>
	</g>
	<g id="XMLID_140_">
		<path id="XMLID_142_" class="st9" d="M102.5,69.6L97.6,65l5.5,3.9c0.2,0.2,0.3,0.5,0.1,0.7C103.1,69.8,102.8,69.8,102.5,69.6
			C102.6,69.7,102.5,69.6,102.5,69.6z"/>
	</g>
	<g id="XMLID_137_">
		<path id="XMLID_139_" class="st9" d="M98.9,70.2L95,66.5l4.5,2.9c0.2,0.1,0.3,0.5,0.2,0.7C99.5,70.3,99.2,70.4,98.9,70.2
			C98.9,70.3,98.9,70.2,98.9,70.2z"/>
	</g>
	<g id="XMLID_16_">
		<path id="XMLID_25_" class="st9" d="M69.4,72.5c-1.1-0.3-2.2-0.6-3.2-0.9c-0.5-0.1-1.1-0.3-1.6-0.4S63.5,71,63,70.9
			c-0.5-0.1-1.1-0.2-1.6-0.3c-0.5-0.1-1.1-0.2-1.6-0.2c-0.5-0.1-1.1-0.1-1.6-0.2c-0.6-0.1-1.1-0.2-1.6-0.2h0.3c0,0-0.1,0-0.2,0.1
			c-0.1,0-0.2,0.1-0.3,0.1c-0.2,0.1-0.4,0.2-0.6,0.3c-0.4,0.2-0.7,0.5-1.1,0.9c-0.3,0.3-0.7,0.7-1,1.1s-0.6,0.8-0.9,1.2v-0.2
			c0-0.1,0,0,0,0s0,0,0,0.1c0,0,0,0.1,0,0.2s0.1,0.2,0.1,0.4c0.1,0.2,0.3,0.5,0.5,0.7c-0.3-0.1-0.6-0.2-0.9-0.4
			c-0.2-0.1-0.3-0.2-0.4-0.4C52,74,52,73.9,51.9,73.9c0,0-0.1-0.1-0.1-0.2s0-0.1-0.1-0.2v-0.1l0.1-0.2c0.2-0.5,0.4-1,0.6-1.5
			c0.3-0.5,0.5-1,0.9-1.4c0.3-0.5,0.7-0.9,1.2-1.2c0.2-0.2,0.5-0.4,0.7-0.5c0.1-0.1,0.3-0.2,0.4-0.2c0.2-0.1,0.3-0.1,0.5-0.2h0.1
			h0.2c1.2,0,2.3,0.1,3.4,0.3c1.1,0.2,2.3,0.5,3.3,0.8c1.1,0.4,2.2,0.8,3.2,1.3C67.6,71.1,68.6,71.7,69.4,72.5z"/>
	</g>
	<path id="XMLID_133_" class="st9" d="M152.9,75.3c0-0.1-0.1-0.1-0.1-0.2c0-0.3-0.2-0.5-0.4-0.6c0,0-0.4-0.1-0.5-0.1
		c-0.2-0.1-0.5-0.1-0.7,0c-0.1,0-0.7,0.2-0.8,0.3c-0.4,0.2-0.6,0.5-0.8,1c-0.2,0.2-0.2,0.6,0.1,0.8c0.6,0.3,1.3,0.7,2,0.5
		c0.2,0,0.5-0.1,0.6-0.3c0.2-0.2,0.3-0.4,0.3-0.7c0.1-0.2,0.1-0.2,0.1-0.4C152.8,75.7,153,75.4,152.9,75.3z"/>
	<path id="XMLID_132_" class="st9" d="M138.6,75.4c0,0,0-0.1-0.1-0.1c0-0.2-0.1-0.3-0.3-0.4c0,0-0.2-0.1-0.3-0.1s-0.3,0-0.4,0
		c-0.1,0-0.4,0.1-0.5,0.2c-0.2,0.1-0.4,0.3-0.5,0.6c-0.1,0.2-0.1,0.4,0,0.5c0.4,0.2,0.8,0.4,1.2,0.3c0.1,0,0.3-0.1,0.4-0.2
		c0.1-0.1,0.2-0.2,0.2-0.4c0.1-0.1,0.1-0.1,0.1-0.2C138.5,75.7,138.6,75.5,138.6,75.4z"/>
	<path id="XMLID_131_" class="st9" d="M64.3,72.1C64.3,72.1,64.3,72,64.3,72.1c-0.1-0.3-0.2-0.4-0.4-0.5c0,0-0.2-0.1-0.3-0.1
		s-0.3,0-0.4,0c-0.1,0-0.4,0.1-0.5,0.2c-0.3,0.1-0.4,0.3-0.5,0.6c-0.1,0.2-0.1,0.4,0,0.5c0.4,0.2,0.8,0.4,1.2,0.3
		c0.1,0,0.3-0.1,0.4-0.2c0.1-0.1,0.2-0.2,0.2-0.4c0.1-0.1,0.1-0.1,0.1-0.2C64.3,72.4,64.4,72.2,64.3,72.1z"/>
	<path id="XMLID_130_" class="st9" d="M56.5,73.1C56.4,73.1,56.4,73.1,56.5,73.1c-0.1-0.2-0.1-0.3-0.2-0.3c0,0-0.1,0-0.2-0.1
		c-0.1,0-0.2,0-0.3,0s-0.3,0.1-0.3,0.1c-0.2,0.1-0.2,0.2-0.3,0.4c-0.1,0.1-0.1,0.2,0,0.3c0.2,0.1,0.5,0.3,0.8,0.2
		c0.1,0,0.2,0,0.2-0.1c0.1-0.1,0.1-0.2,0.1-0.3c0-0.1,0-0.1,0.1-0.2C56.4,73.3,56.5,73.2,56.5,73.1z"/>
	<path id="XMLID_129_" class="st9" d="M59.4,71.1L59.4,71.1c0-0.1-0.1-0.2-0.2-0.2h-0.1c-0.1,0-0.1,0-0.2,0L58.7,71
		c-0.1,0.1-0.2,0.2-0.2,0.3c0,0.1-0.1,0.2,0,0.2c0.2,0.1,0.4,0.2,0.6,0.2c0.1,0,0.1,0,0.2-0.1c0.1-0.1,0.1-0.1,0.1-0.2
		C59.4,71.3,59.4,71.3,59.4,71.1C59.4,71.3,59.5,71.2,59.4,71.1z"/>
	<path id="XMLID_8_" class="st12" d="M155.5,105.4c5.1-1,10.7-3.9,16.8-5.4l7.3-1.6c7-2,12.5-4.8,12.5-4.8c8.1-5.8,7.7-6.3,7.7-6.3
		l-5.3,0.4c-1.4,0.4-7.5,1-7.5,1c4.2-4,11.5-7.8,11.5-7.8c-4.6-8.2-35.1-11.9-35.1-11.9l-7.8-0.6c0,0-70.5-0.5-94.1,6.3
		c0,0-11.7,0.3-13.2-0.5l-5.1-2c0,0-6.6-2.6-10.5-4.7c0,0-22.2-10.3-27.9-10.1c0,0-1.3,0.1,9.2,21.7c0,0,2.8,3.8-1.9,9.6
		c0,0.1-9,14.3-9,19.3c0,0,9.2,2.2,32.8-12.6c0,0,11.7-5,13.2-4.7"/>
	<path id="XMLID_127_" class="st13" d="M192.4,86.6"/>
	<path id="XMLID_126_" class="st9" d="M143.2,80.9c0,0,0-0.1-0.1-0.1c0-0.2-0.1-0.3-0.3-0.4c0,0-0.2-0.1-0.3-0.1s-0.3,0-0.4,0
		c-0.1,0-0.4,0.1-0.5,0.2c-0.2,0.1-0.4,0.3-0.5,0.6c-0.1,0.2-0.1,0.4,0,0.5c0.4,0.2,0.8,0.4,1.2,0.3c0.1,0,0.3-0.1,0.4-0.2
		c0.1-0.1,0.2-0.2,0.2-0.4c0.1-0.1,0.1-0.1,0.1-0.2C143.1,81.2,143.2,81,143.2,80.9z"/>
	<path id="XMLID_125_" class="st9" d="M109.2,76.8C109.2,76.8,109.2,76.7,109.2,76.8c-0.1-0.3-0.2-0.4-0.4-0.5c0,0-0.2-0.1-0.3-0.1
		c-0.1,0-0.3,0-0.4,0s-0.4,0.1-0.5,0.2c-0.2,0.1-0.4,0.3-0.5,0.6c-0.1,0.2-0.1,0.4,0,0.5c0.4,0.2,0.8,0.4,1.2,0.3
		c0.1,0,0.3-0.1,0.4-0.2s0.2-0.2,0.2-0.4c0.1-0.1,0.1-0.1,0.1-0.2C109.2,77,109.3,76.8,109.2,76.8z"/>
	<path id="XMLID_124_" class="st9" d="M74.4,78.8c0-0.1-0.1-0.1-0.1-0.2c0-0.3-0.2-0.5-0.4-0.6c0,0-0.4-0.1-0.5-0.1
		c-0.2-0.1-0.5-0.1-0.7,0c-0.1,0-0.7,0.2-0.8,0.3c-0.4,0.2-0.6,0.5-0.8,1c-0.2,0.2-0.2,0.6,0.1,0.8c0.6,0.3,1.3,0.7,2,0.5
		c0.2,0,0.5-0.1,0.6-0.3c0.2-0.2,0.3-0.4,0.3-0.7c0.1-0.2,0.1-0.2,0.1-0.4C74.3,79.2,74.4,78.8,74.4,78.8z"/>
	<path id="XMLID_123_" class="st9" d="M77.9,87.7c0-0.1-0.1-0.1-0.1-0.2c0-0.3-0.2-0.5-0.4-0.6c0,0-0.4-0.1-0.5-0.1
		c-0.2-0.1-0.5-0.1-0.7,0c-0.1,0-0.7,0.2-0.8,0.3c-0.4,0.2-0.6,0.5-0.8,1c-0.2,0.2-0.2,0.6,0.1,0.8c0.6,0.3,1.3,0.7,2,0.5
		c0.2,0,0.5-0.1,0.6-0.3c0.2-0.2,0.3-0.4,0.3-0.7c0.1-0.2,0.1-0.2,0.1-0.4C77.8,88.1,77.9,87.8,77.9,87.7z"/>
	<path id="XMLID_122_" class="st9" d="M85.1,80.9C85.1,80.9,85.1,80.8,85.1,80.9c-0.1-0.3-0.2-0.4-0.4-0.5c0,0-0.2-0.1-0.3-0.1
		c-0.1,0-0.3,0-0.4,0s-0.4,0.1-0.5,0.2c-0.2,0.1-0.4,0.3-0.5,0.6c-0.1,0.2-0.1,0.4,0,0.5c0.4,0.2,0.8,0.4,1.2,0.3
		c0.1,0,0.3-0.1,0.4-0.2s0.2-0.2,0.2-0.4c0.1-0.1,0.1-0.1,0.1-0.2C85.1,81.2,85.2,81,85.1,80.9z"/>
	<path id="XMLID_121_" class="st9" d="M98.8,74.7L98.8,74.7c-0.1-0.2-0.1-0.3-0.2-0.3c0,0-0.2,0-0.2-0.1c-0.1,0-0.2,0-0.3,0
		c-0.1,0-0.3,0.1-0.3,0.1c-0.2,0.1-0.3,0.2-0.4,0.4c-0.1,0.1-0.1,0.3,0,0.3c0.3,0.1,0.6,0.3,0.9,0.2c0.1,0,0.2,0,0.3-0.1
		c0.1-0.1,0.1-0.2,0.1-0.3C98.7,74.8,98.7,74.8,98.8,74.7C98.8,74.9,98.8,74.7,98.8,74.7z"/>
	<path id="XMLID_120_" class="st9" d="M120.3,80.2L120.3,80.2c-0.1-0.2-0.1-0.3-0.2-0.3c0,0-0.2,0-0.2-0.1c-0.1,0-0.2,0-0.3,0
		c-0.1,0-0.3,0.1-0.3,0.1c-0.2,0.1-0.3,0.2-0.4,0.4c-0.1,0.1-0.1,0.3,0,0.3c0.3,0.1,0.6,0.3,0.9,0.2c0.1,0,0.2,0,0.3-0.1
		c0.1-0.1,0.1-0.2,0.1-0.3C120.2,80.3,120.2,80.3,120.3,80.2C120.3,80.4,120.3,80.3,120.3,80.2z"/>
	<path id="XMLID_119_" class="st9" d="M150.7,81.8L150.7,81.8c-0.1-0.2-0.1-0.3-0.2-0.3c0,0-0.2,0-0.2-0.1c-0.1,0-0.2,0-0.3,0
		s-0.3,0.1-0.3,0.1c-0.2,0.1-0.3,0.2-0.4,0.4c-0.1,0.1-0.1,0.3,0,0.3c0.3,0.1,0.6,0.3,0.9,0.2c0.1,0,0.2,0,0.3-0.1s0.1-0.2,0.1-0.3
		C150.6,81.9,150.6,81.9,150.7,81.8C150.7,82,150.7,81.9,150.7,81.8z"/>
	<path id="XMLID_118_" class="st9" d="M191.1,85.9c0,0-4.2,4.2-5.6,3.5c0,0,7.4,4,15.4-2.8L191.1,85.9z"/>
	<g id="XMLID_115_">
		<path id="XMLID_117_" class="st9" d="M190.6,82.1c0,0-1.1,0.6-2.8,1.6c-0.8,0.5-1.8,1.1-2.8,1.7c-1,0.7-2.1,1.4-2.9,2.3
			c-0.4,0.4-0.9,0.9-0.9,1.3c0,0.1,0,0.2,0,0.2c0,0.1,0.1,0.2,0.1,0.2c0.1,0.1,0.3,0.2,0.5,0.3c0.4,0.1,1,0,1.5-0.1
			c0.2-0.1,0.5-0.1,0.7-0.2s0.5-0.2,0.7-0.3c0.9-0.4,1.6-0.7,2.1-1s0.8-0.4,0.8-0.4l0.1,0.1c0,0-0.2,0.2-0.7,0.6
			c-0.2,0.2-0.5,0.4-0.8,0.6s-0.7,0.5-1.1,0.8c-0.4,0.3-0.9,0.5-1.5,0.7c-0.5,0.2-1.2,0.4-2,0.2c-0.8-0.1-1.6-0.9-1.4-1.9
			c0.3-0.8,0.8-1.3,1.3-1.7c1-0.9,2.1-1.6,3.2-2.2c1.1-0.6,2.1-1.1,2.9-1.5C189.4,82.6,190.6,82.1,190.6,82.1L190.6,82.1z"/>
	</g>
	<g id="XMLID_112_">
		<path id="XMLID_308_" class="st9" d="M166.5,74.5c-1.5,1.8-2.7,3.9-3.7,6s-1.7,4.3-1.8,6.6c-0.1,1.1,0,2.2,0.3,3.3
			c0.3,1,0.8,2,1.4,2.9c0.6,0.9,1.4,1.7,2.2,2.4c0.8,0.7,1.7,1.4,2.7,2.1l0.2,0.2l0.1,0.1c0,0.1,0.2,0.3,0.2,0.4
			c0.1,0.1,0.2,0.3,0.3,0.4c0.2,0.3,0.5,0.5,0.7,0.7c0.1,0.1,0.3,0.2,0.4,0.3c0.2,0.1,0.3,0.2,0.5,0.2c0.2,0.1,0.3,0.1,0.5,0.1
			s0.4,0,0.6,0.1v0.2c-0.2,0.1-0.4,0.2-0.6,0.2c-0.2,0-0.4,0.1-0.7,0.1c-0.2,0-0.4,0-0.7-0.1c-0.2,0-0.4-0.1-0.6-0.2
			c-0.4-0.2-0.8-0.4-1.2-0.7c-0.2-0.1-0.3-0.3-0.5-0.4c-0.2-0.2-0.3-0.3-0.5-0.5l0.3,0.3c-0.6-0.3-1.1-0.5-1.6-0.9
			c-0.5-0.3-1.1-0.7-1.6-1.1c-1-0.8-1.9-1.7-2.5-2.9c-1.4-2.2-1.8-4.9-1.5-7.4s1.2-4.8,2.5-6.9c1.2-2.1,2.7-4,4.4-5.7L166.5,74.5z"
			/>
	</g>
	<g id="XMLID_109_">
		<path id="XMLID_111_" class="st9" d="M169,79.7c-0.2,0.6-0.4,1.2-0.5,1.8c-0.1,0.6-0.3,1.3-0.3,1.9c-0.1,0.6-0.1,1.3-0.1,1.9
			c0,0.3,0,0.6,0,0.9l0.1,0.9l0.2,0.9c0,0.3,0.2,0.6,0.2,0.9c0.1,0.3,0.2,0.6,0.3,0.9s0.2,0.6,0.4,0.8l0.5,0.8
			c0.2,0.2,0.4,0.5,0.6,0.7l0.3,0.3l0.3,0.3l0.7,0.6l-0.2-0.1c0.9,0.3,1.8,0.6,2.7,0.8c0.4,0.1,0.9,0.2,1.3,0.2c0.2,0,0.4,0,0.6,0
			c0.1,0,0.1,0,0.2,0c0.1,0,0,0,0,0l-0.4,0.7v-1v-1c0-0.6-0.1-1.3-0.2-1.9c0-0.3-0.1-0.6-0.2-0.9c-0.1-0.3-0.2-0.6-0.3-0.8
			c-0.1-0.1-0.1-0.3-0.2-0.4c-0.1-0.1-0.1-0.2-0.2-0.3c-0.1-0.1-0.2-0.2-0.2-0.3c-0.1-0.1-0.2-0.2-0.3-0.2l-0.4-0.3v-0.2
			c-0.1-0.5-0.1-0.9-0.1-1.4s0-0.9,0-1.4c0.1-0.9,0.3-1.9,0.7-2.7l0.2,0.1c-0.1,0.9,0,1.7,0.1,2.6c0.1,0.4,0.2,0.8,0.2,1.3
			c0.1,0.4,0.2,0.8,0.3,1.2l-0.4-0.5l0.6,0.3c0.2,0.1,0.3,0.3,0.5,0.4s0.3,0.3,0.4,0.5c0.1,0.2,0.2,0.3,0.3,0.5
			c0.2,0.4,0.4,0.7,0.5,1.1s0.2,0.7,0.3,1.1c0.2,0.7,0.3,1.5,0.3,2.2c0,0.4,0,0.7,0,1.1s0,0.7-0.1,1.1l-0.1,0.6l-0.4,0.2
			c-0.2,0.1-0.5,0.2-0.6,0.2c-0.2,0-0.4,0.1-0.5,0.1c-0.3,0-0.6,0-0.9-0.1c-0.5-0.1-1-0.2-1.5-0.3c-1-0.3-1.9-0.6-2.8-1l-0.1-0.1
			l-0.1-0.1l-0.7-0.7l-0.4-0.4l-0.3-0.4c-0.2-0.3-0.4-0.5-0.6-0.8l-0.5-0.9c-0.2-0.3-0.2-0.6-0.4-1c-0.1-0.3-0.2-0.6-0.3-1
			c-0.1-0.3-0.2-0.7-0.2-1l-0.1-1v-1c0-0.3,0-0.7,0.1-1c0.1-0.7,0.2-1.3,0.3-1.9c0.3-1.3,0.7-2.5,1.2-3.7L169,79.7z"/>
	</g>
	<path id="XMLID_108_" class="st14" d="M13.8,86.2"/>
	<path id="XMLID_107_" class="st14" d="M9.7,94"/>
	<g id="XMLID_104_">
		<path id="XMLID_178_" class="st9" d="M186.2,82.2c0,0-0.4,0.3-1.1,0.6c-0.4,0.1-0.8,0.2-1.2,0.3c-0.5,0-1-0.1-1.5-0.2
			c-0.2,0-0.5-0.1-0.7-0.2s-0.5-0.2-0.7-0.3c-0.2-0.1-0.4-0.3-0.6-0.4c-0.2-0.2-0.3-0.3-0.4-0.5c-0.1-0.2-0.2-0.3-0.3-0.4
			s-0.1-0.3-0.1-0.4c-0.1-0.2-0.1-0.3-0.1-0.3h0.1c0,0,0.1,0.1,0.2,0.3c0.1,0.1,0.1,0.2,0.2,0.3c0.1,0.1,0.2,0.2,0.3,0.3
			c0.1,0.1,0.3,0.2,0.4,0.3c0.2,0.1,0.3,0.2,0.5,0.2c0.2,0.1,0.4,0.1,0.6,0.2c0.2,0,0.4,0.1,0.7,0.1c0.4,0,0.9,0,1.3-0.1
			c0.4,0,0.8,0,1.2,0C185.7,82,186.2,82.1,186.2,82.2L186.2,82.2z"/>
	</g>
	<g id="XMLID_13_">
		<path id="XMLID_33_" class="st9" d="M116.5,100.4c-0.2,1.7-0.6,3.4-1.1,5.1c-0.2,0.8-0.5,1.7-0.8,2.5s-0.6,1.7-1,2.5
			c-0.7,1.6-1.5,3.2-2.7,4.7c-0.3,0.4-0.6,0.7-0.9,1.1c-0.3,0.3-0.7,0.7-1,1c-0.4,0.3-0.8,0.6-1.2,0.8l-0.7,0.3l-0.7,0.3l-0.5,0.2
			l-0.4-0.5c-0.3-0.3-0.5-0.6-0.8-0.8c-0.2-0.3-0.5-0.6-0.7-0.8c-0.4-0.6-0.8-1.2-1.2-1.8c-0.8-1.2-1.4-2.5-2-3.8
			c-0.3-0.6-0.5-1.3-0.8-2c-0.2-0.7-0.4-1.3-0.6-2c-0.3-1.4-0.6-2.8-0.7-4.2v-0.1v-0.1c0-0.2,0.1-0.4,0.1-0.5
			c0.1-0.2,0.1-0.3,0.2-0.5c0.1-0.3,0.3-0.6,0.6-0.9c0.2-0.3,0.5-0.5,0.9-0.7c0.3-0.2,0.7-0.2,1.1-0.3h0.1h0.1
			c0.7,0.3,1.5,0.5,2.2,0.6c0.4,0.1,0.8,0.1,1.2,0.1c0.4,0,0.8-0.1,1.1-0.3c-0.6,0.5-1.5,0.7-2.3,0.7s-1.6-0.1-2.5-0.3h0.2
			c-0.5,0.1-0.9,0.4-1.2,0.8c-0.1,0.2-0.2,0.4-0.3,0.7c0,0.1-0.1,0.3-0.1,0.4s-0.1,0.3-0.1,0.4v-0.2c0.3,1.3,0.6,2.6,1,3.9
			c0.2,0.6,0.4,1.3,0.7,1.9c0.3,0.6,0.5,1.2,0.8,1.8c0.6,1.2,1.2,2.4,1.9,3.5c0.4,0.6,0.7,1.1,1.1,1.6c0.2,0.3,0.4,0.5,0.6,0.8
			c0.2,0.2,0.4,0.5,0.6,0.7l-1-0.2l0.5-0.2l0.5-0.2c0.3-0.2,0.6-0.4,0.9-0.6c0.3-0.3,0.6-0.5,0.9-0.8s0.6-0.6,0.8-0.9
			c0.5-0.6,1-1.3,1.5-2s0.9-1.4,1.3-2.2C113.9,106.9,115.2,103.7,116.5,100.4z"/>
	</g>
	<path id="XMLID_102_" class="st15" d="M103.9,105.6"/>
	<g id="XMLID_99_">
		<path id="XMLID_101_" class="st9" d="M103.9,115.2c0,0,0.5-0.4,1.2-1.1s1.7-1.6,2.6-2.6s1.7-2,2.2-2.9c0.1-0.2,0.2-0.4,0.3-0.6
			c0.1-0.2,0.2-0.3,0.2-0.5c0.1-0.3,0.2-0.4,0.2-0.4s0,0.2-0.1,0.4c0,0.1-0.1,0.3-0.2,0.5s-0.1,0.4-0.3,0.6c-0.4,0.9-1.1,2.1-2,3.1
			c-1.6,2.2-3.5,4.1-3.5,4.1c-0.2,0.2-0.5,0.2-0.7,0S103.7,115.4,103.9,115.2L103.9,115.2z"/>
	</g>
	<g id="XMLID_96_">
		<path id="XMLID_98_" class="st9" d="M101.2,108.9c0,0,0.1,0,0.3,0.1c0.2,0,0.5,0.1,0.8,0c0.4,0,0.8-0.1,1.2-0.2
			c0.4-0.1,0.9-0.3,1.3-0.5c0.2-0.1,0.4-0.2,0.6-0.4c0.2-0.1,0.4-0.3,0.6-0.4c0.4-0.3,0.7-0.6,1-0.9s0.5-0.5,0.6-0.7
			s0.2-0.3,0.2-0.3s-0.1,0.1-0.2,0.3c-0.1,0.2-0.3,0.5-0.5,0.8s-0.5,0.7-0.9,1c-0.2,0.2-0.4,0.3-0.6,0.5s-0.4,0.3-0.6,0.5
			c-0.4,0.3-0.9,0.6-1.4,0.8c-0.5,0.2-0.9,0.3-1.3,0.4s-0.8,0.1-1,0.1s-0.4,0-0.4,0L101.2,108.9z"/>
	</g>
	<g id="XMLID_10_">
		<path id="XMLID_35_" class="st9" d="M76.7,97.1c-0.5,1.1-1.1,2.1-1.8,3.1c-0.7,1-1.4,1.9-2.2,2.9c-0.4,0.5-0.8,0.9-1.2,1.3
			c-0.4,0.4-0.8,0.9-1.3,1.3c-0.4,0.4-0.9,0.8-1.4,1.2c-0.5,0.4-1,0.7-1.5,1.1l0.2-0.1c-0.6,0.7-1.2,1.3-1.9,1.8
			c-0.4,0.3-0.7,0.6-1.2,0.8c-0.2,0.1-0.5,0.2-0.7,0.3c-0.3,0.1-0.6,0.2-1.2,0.1c0.1,0-0.4-0.2-0.5-0.2c-0.1-0.1-0.2-0.2-0.3-0.4
			c-0.1-0.2-0.2-0.4-0.2-0.6c-0.1-0.3-0.1-0.6-0.1-0.8c0-0.5,0-0.9,0.1-1.3c0.1-0.8,0.2-1.7,0.2-2.5v0.4c-0.1-0.5-0.3-1-0.5-1.5
			s-0.4-1-0.7-1.5c-0.5-1-1-1.9-1.6-2.8c-0.3-0.4-0.6-0.9-0.9-1.3c-0.3-0.4-0.7-0.8-1-1.2l-0.3-0.3c-0.1-0.1-0.2-0.2-0.3-0.4
			c-0.2-0.3-0.4-0.6-0.5-1s-0.1-1,0.2-1.3s0.6-0.5,0.9-0.6h0.4c-0.1,0-0.1,0-0.1,0l0,0h0.1h0.1h0.3l0.6-0.1l1.3-0.1l2.5-0.3
			c-0.8,0.3-1.6,0.6-2.4,0.8c-0.4,0.1-0.8,0.2-1.2,0.4L58,94.5l-0.3,0.1h-0.2h-0.1h-0.1c0,0,0,0-0.2,0h0.4c-0.2,0.1-0.4,0.3-0.4,0.4
			s0,0.2,0,0.3c0.1,0.1,0.2,0.3,0.3,0.4s0.2,0.1,0.2,0.2l0.3,0.3c0.4,0.4,0.9,0.8,1.3,1.2c0.4,0.4,0.8,0.9,1.1,1.3
			c0.7,0.9,1.3,1.9,1.9,2.9c0.3,0.5,0.5,1,0.7,1.6l0.3,0.8c0.1,0.3,0.2,0.5,0.3,0.8l0.1,0.2v0.2c-0.1,0.9-0.1,1.7-0.2,2.5
			c0,0.4-0.1,0.8-0.1,1.2c0,0.2,0,0.3,0,0.4c0,0,0,0.1,0,0l-0.1-0.1c0,0-0.1,0-0.1-0.1H63l0,0c-0.2,0-0.1,0,0,0s0.3-0.1,0.4-0.2
			c0.3-0.2,0.6-0.4,0.9-0.6c0.6-0.5,1.2-1,1.8-1.6l0.1-0.1l0.1-0.1c0.5-0.3,1-0.6,1.4-1c0.5-0.3,0.9-0.7,1.4-1
			c0.9-0.7,1.8-1.5,2.6-2.3C73.5,100.5,75.1,98.8,76.7,97.1z"/>
	</g>
	<g id="XMLID_90_">
		<polygon id="XMLID_151_" class="st9" points="58.1,96.6 62.2,96.1 58.8,98.4 		"/>
	</g>
	<path id="XMLID_89_" class="st16" d="M61.4,101.4"/>
	<g id="XMLID_82_">
		<polygon id="XMLID_95_" class="st9" points="60.9,100.5 67.7,98.3 61.8,102.3 		"/>
	</g>
	<path id="XMLID_79_" class="st16" d="M62.2,105"/>
	<g id="XMLID_76_">
		<polygon id="XMLID_92_" class="st9" points="61.9,104.1 70.7,99.9 62.9,105.8 		"/>
	</g>
	<g id="XMLID_73_">
		<path id="XMLID_162_" class="st9" d="M44.3,91c0,0,1.2-0.6,3-1.3c1.8-0.7,4.3-1.6,6.8-2.2c0.6-0.2,1.3-0.3,1.9-0.4
			c0.6-0.1,1.3-0.2,1.9-0.3c0.6-0.1,1.2-0.2,1.7-0.2c0.6,0,1.1-0.1,1.6-0.1s0.9,0,1.3,0c0.4,0,0.7,0.1,1,0.1
			c0.6,0.1,0.9,0.1,0.9,0.1s-0.3,0-0.9,0c-0.3,0-0.6,0-1,0s-0.8,0-1.3,0.1s-1,0.2-1.5,0.2c-0.5,0.1-1.1,0.2-1.7,0.4
			c-0.6,0.2-1.2,0.3-1.8,0.5s-1.2,0.4-1.8,0.6c-2.4,0.9-4.7,1.9-6.4,2.8s-2.8,1.5-2.8,1.5L44.3,91z"/>
	</g>
	<g id="XMLID_69_">
		<path id="XMLID_72_" class="st9" d="M66.6,90.7c0,0,4.7,0.8,11.8,2.1c3.5,0.6,7.7,1.3,12.1,2s9.1,1.4,13.9,2.1
			c4.7,0.7,9.5,1.3,13.9,1.7c2.2,0.2,4.4,0.4,6.4,0.6c2,0.1,4,0.2,5.8,0.3c1.8,0,3.4,0,4.9,0s2.7-0.2,3.7-0.3c1-0.2,1.8-0.3,2.4-0.5
			c0.5-0.1,0.8-0.2,0.8-0.2s-0.3,0.1-0.8,0.3c-0.5,0.2-1.3,0.4-2.4,0.6c-1,0.2-2.3,0.4-3.8,0.5s-3.1,0.2-4.9,0.2
			c-1.8,0-3.7,0-5.8-0.1c-2.1-0.1-4.2-0.2-6.5-0.4c-4.5-0.4-9.2-1-14-1.6c-4.7-0.7-9.5-1.5-13.9-2.2c-4.4-0.8-8.5-1.6-12-2.3
			c-3.5-0.7-6.4-1.4-8.5-1.8C67.7,90.9,66.6,90.7,66.6,90.7z"/>
	</g>
	<g id="XMLID_6_">
		<path id="XMLID_84_" class="st9" d="M144.1,103.1c0,0,0.8-0.5,2-1.2c1.2-0.6,2.9-1.4,4.7-1.9c0.4-0.1,0.9-0.2,1.3-0.4
			c0.4-0.1,0.9-0.2,1.3-0.2c0.4,0,0.8-0.1,1.2-0.1s0.8,0,1.1,0s0.7,0.1,0.9,0.1c0.3,0,0.5,0.1,0.7,0.1c0.4,0.1,0.6,0.1,0.6,0.1
			s-0.2,0-0.6-0.1c-0.2,0-0.4-0.1-0.7-0.1s-0.6,0-0.9,0c-0.3,0-0.7,0.1-1.1,0.1c-0.4,0.1-0.8,0.2-1.2,0.2c-0.4,0.1-0.8,0.2-1.2,0.4
			c-0.4,0.2-0.8,0.3-1.2,0.5c-1.6,0.7-3.2,1.6-4.3,2.3c-1.1,0.7-1.8,1.3-1.8,1.3c-0.3,0.3-0.8,0.2-1.1-0.1
			C143.7,103.9,143.7,103.5,144.1,103.1C144.1,103.2,144.1,103.2,144.1,103.1L144.1,103.1z"/>
	</g>
	<g id="XMLID_3_">
		<path id="XMLID_78_" class="st9" d="M141.8,107.9c0,0,2.7-1.3,5.5-2.5c1.4-0.6,2.8-1.1,3.9-1.4c0.3-0.1,0.5-0.1,0.7-0.2
			s0.4-0.1,0.6-0.1c0.2,0,0.3,0,0.4,0c0.1,0,0.1,0,0.1,0s0,0-0.1,0s-0.2,0-0.4,0s-0.3,0.1-0.6,0.2c-0.2,0.1-0.4,0.2-0.7,0.3
			c-1,0.4-2.3,1.2-3.6,1.9c-2.6,1.5-5.1,3.1-5.1,3.1c-0.3,0.2-0.8,0.1-1-0.2C141.2,108.7,141.3,108.2,141.8,107.9
			C141.7,108,141.8,107.9,141.8,107.9z"/>
	</g>
	<path id="XMLID_2_" class="st9" d="M41.8,89c0-0.1-0.1-0.1-0.1-0.2c0-0.3-0.2-0.5-0.4-0.6c0,0-0.4-0.1-0.5-0.1
		c-0.2-0.1-0.5-0.1-0.7,0c-0.1,0-0.7,0.2-0.8,0.3c-0.4,0.2-0.6,0.5-0.8,1c-0.2,0.2-0.2,0.6,0.1,0.8c0.6,0.3,1.3,0.7,2,0.5
		c0.2,0,0.5-0.1,0.6-0.3c0.2-0.2,0.3-0.4,0.3-0.7c0.1-0.2,0.1-0.2,0.1-0.4C41.7,89.4,41.8,89.1,41.8,89z"/>
	<g id="XMLID_303_">
		<path id="XMLID_310_" class="st9" d="M179.6,72.1c0,0,0,0.6-0.1,1.2c-0.1,0.3-0.2,0.6-0.4,0.9s-0.6,0.4-0.8,0.7
			c-0.5,0.5-0.9,1.1-1.1,1.6c-0.1,0.2-0.2,0.5-0.2,0.6c0,0.2,0,0.3,0,0.3h-0.2c0,0,0-0.1-0.1-0.3c0-0.1-0.1-0.2-0.1-0.3
			c0-0.1-0.1-0.3-0.1-0.4c0-0.3,0-0.7,0.1-1.1s0.2-0.8,0.4-1.2c0.2-0.4,0.3-0.8,0.5-1.2c0.2-0.3,0.6-0.5,0.9-0.7
			C179,71.9,179.6,72,179.6,72.1L179.6,72.1z"/>
	</g>
	<path id="XMLID_113_" class="st9" d="M173.3,74.5c0,0,0-0.1-0.1-0.1c0-0.2-0.1-0.3-0.3-0.4c0,0-0.2-0.1-0.3-0.1s-0.3,0-0.4,0
		c-0.1,0-0.4,0.1-0.5,0.2c-0.2,0.1-0.4,0.3-0.5,0.6c-0.1,0.2-0.1,0.4,0,0.5c0.4,0.2,0.8,0.4,1.2,0.3c0.1,0,0.3-0.1,0.4-0.2
		c0.1-0.1,0.2-0.2,0.2-0.4c0.1-0.1,0.1-0.1,0.1-0.2C173.2,74.7,173.3,74.6,173.3,74.5z"/>
	<g id="XMLID_160_">
		<path id="XMLID_318_" class="st9" d="M56.6,73.4c0,0-1.4,0.8-3.7,1.6c-1.1,0.4-2.5,0.8-3.9,1.2c-0.7,0.1-1.5,0.3-2.3,0.4
			s-1.6,0.2-2.4,0.3c-1.6,0.2-3.2,0.4-4.7,0.5c-0.7,0.1-1.5,0.1-2.2,0.1s-1.3,0-1.9-0.1c-0.6,0-1.2-0.1-1.6-0.2
			c-0.5-0.1-0.9-0.1-1.2-0.2c-0.7-0.2-1.1-0.3-1.1-0.3v-0.1c0,0,0.4,0.1,1.1,0.1c0.3,0.1,0.8,0.1,1.2,0.1c0.5,0,1,0.1,1.6,0
			c0.6,0,1.2,0,1.9-0.1s1.4-0.1,2.1-0.2c1.5-0.2,3-0.5,4.6-0.8c1.5-0.3,3.1-0.7,4.5-1.1c1.4-0.3,2.8-0.6,4-0.8c2.3-0.4,4-0.6,4-0.6
			L56.6,73.4z"/>
	</g>
	<path id="XMLID_4_" class="st9" d="M49.9,80.2C49.9,80.2,49.9,80.1,49.9,80.2c-0.1-0.3-0.2-0.4-0.4-0.5c0,0-0.2-0.1-0.3-0.1
		s-0.3,0-0.4,0c-0.1,0-0.4,0.1-0.5,0.2c-0.3,0.1-0.4,0.3-0.5,0.6c-0.1,0.2-0.1,0.4,0,0.5c0.4,0.2,0.8,0.4,1.2,0.3
		c0.1,0,0.3-0.1,0.4-0.2c0.1-0.1,0.2-0.2,0.2-0.4c0.1-0.1,0.1-0.1,0.1-0.2C49.8,80.5,49.9,80.3,49.9,80.2z"/>
</g>
</svg>
