<svg id="Layer_1" data-name="Layer 1" xmlns="http://www.w3.org/2000/svg" viewBox="0 0 47.8 44"  width="50" height="50"><defs><style>.cls-1{fill:#2daae1;}.cls-2{fill:#fff;}</style></defs><title>twitter</title><path class="cls-1" d="M31.55,0a9.77,9.77,0,0,1,7.6,4.4l7.6,13.2a9.74,9.74,0,0,1,0,8.8l-7.6,13.2a9.47,9.47,0,0,1-7.6,4.4H16.35a9.77,9.77,0,0,1-7.6-4.4L1.05,26.4a9.74,9.74,0,0,1,0-8.8L8.65,4.4A9.8,9.8,0,0,1,16.35,0Z" transform="translate(0 0)"/><path class="cls-1" d="M31.55,0a9.77,9.77,0,0,1,7.6,4.4l7.6,13.2a9.74,9.74,0,0,1,0,8.8l-7.6,13.2a9.47,9.47,0,0,1-7.6,4.4H16.35a9.77,9.77,0,0,1-7.6-4.4L1.05,26.4a9.74,9.74,0,0,1,0-8.8L8.65,4.4A9.8,9.8,0,0,1,16.35,0Z" transform="translate(0 0)"/><path class="cls-2" d="M38.15,10.4a13.16,13.16,0,0,1-3.9,1.5,6,6,0,0,0-4.5-1.9,6.15,6.15,0,0,0-6.2,6.1,6.75,6.75,0,0,0,.2,1.4,18,18,0,0,1-12.7-6.3,6.11,6.11,0,0,0-.8,3,5.93,5.93,0,0,0,2.7,5,5.38,5.38,0,0,1-2.8-.8v.1a6,6,0,0,0,4.9,5.9,8.75,8.75,0,0,1-1.6.2,4.87,4.87,0,0,1-1.2-.1,6.16,6.16,0,0,0,5.8,4.2,12.68,12.68,0,0,1-7.6,2.6A7.57,7.57,0,0,1,9,31.2a17.79,17.79,0,0,0,9.4,2.7,17.23,17.23,0,0,0,17.5-17.2v-.8A15.18,15.18,0,0,0,39,12.8a14,14,0,0,1-3.5,1A6.57,6.57,0,0,0,38.15,10.4Z" transform="translate(0 0)"/></svg>