<svg id="Layer_1" data-name="Layer 1" xmlns="http://www.w3.org/2000/svg" viewBox="0 0 47.8 44"  width="50" height="50"><defs><style>.cls-1{fill:#e14e42;}.cls-2{fill:#fff;}</style></defs><title>youtube</title><path class="cls-1" d="M31.55,0a9.77,9.77,0,0,1,7.6,4.4l7.6,13.2a9.74,9.74,0,0,1,0,8.8l-7.6,13.2a9.77,9.77,0,0,1-7.6,4.4H16.25a9.77,9.77,0,0,1-7.6-4.4L1.05,26.4a9.74,9.74,0,0,1,0-8.8L8.65,4.4A9.77,9.77,0,0,1,16.25,0Z" transform="translate(0 0)"/><path class="cls-1" d="M31.55,0a9.77,9.77,0,0,1,7.6,4.4l7.6,13.2a9.74,9.74,0,0,1,0,8.8l-7.6,13.2a9.77,9.77,0,0,1-7.6,4.4H16.25a9.77,9.77,0,0,1-7.6-4.4L1.05,26.4a9.74,9.74,0,0,1,0-8.8L8.65,4.4A9.77,9.77,0,0,1,16.25,0Z" transform="translate(0 0)"/><path class="cls-2" d="M32.15,27.2a.76.76,0,0,0-.5.2,1.17,1.17,0,0,0-.2.7v.8h1.3v-.8a1.17,1.17,0,0,0-.2-.7C32.55,27.3,32.35,27.2,32.15,27.2Z" transform="translate(0 0)"/><path class="cls-2" d="M27,27.2a.37.37,0,0,0-.3.1c-.1.1-.2.1-.3.2v4.8a1.38,1.38,0,0,0,.4.3c.1.1.2.1.4.1a.52.52,0,0,0,.4-.2.75.75,0,0,0,.1-.5V28a.85.85,0,0,0-.2-.6A.55.55,0,0,0,27,27.2Z" transform="translate(0 0)"/><path class="cls-2" d="M33.65,21h-19a5.84,5.84,0,0,0-5.5,5.9v4.5a5.57,5.57,0,0,0,5.5,5.6h19a5.57,5.57,0,0,0,5.5-5.6V26.9A5.84,5.84,0,0,0,33.65,21Zm-15,3.8h-1.8v9h-1.7v-9h-1.8V23.3h5.2v1.5Zm5,9h-1.5v-.9a2.76,2.76,0,0,1-.9.7,1.49,1.49,0,0,1-.9.2,1,1,0,0,1-.8-.3,1.49,1.49,0,0,1-.3-1V26h1.5v6c0,.2,0,.3.1.4a.37.37,0,0,0,.3.1.76.76,0,0,0,.4-.2,1.76,1.76,0,0,0,.5-.4V26h1.5v7.8Zm5.5-1.6a1.84,1.84,0,0,1-.4,1.3,1.16,1.16,0,0,1-1,.4,1.88,1.88,0,0,1-.8-.2,2.65,2.65,0,0,1-.6-.5v.6h-1.5V23.3h1.5v3.4a1.79,1.79,0,0,1,.7-.5,1.85,1.85,0,0,1,.7-.2,1.43,1.43,0,0,1,1.1.5,2.08,2.08,0,0,1,.4,1.5v4.2Zm5.2-2.1h-2.9v1.5a2.22,2.22,0,0,0,.1.9c.1.2.3.2.5.2a.59.59,0,0,0,.5-.2,1.44,1.44,0,0,0,.2-.9v-.4h1.6v.4a2.44,2.44,0,0,1-.6,1.8,2.2,2.2,0,0,1-1.7.6,2.11,2.11,0,0,1-1.6-.6,2.44,2.44,0,0,1-.6-1.8V28.1a2.11,2.11,0,0,1,.6-1.6,2.35,2.35,0,0,1,1.7-.6,2.11,2.11,0,0,1,1.6.6,2.35,2.35,0,0,1,.6,1.7v1.9Z" transform="translate(0 0)"/><polygon class="cls-2" points="14.85 7 17.15 14 17.15 18.6 19.05 18.6 19.05 13.8 21.25 7 19.35 7 18.15 11.6 18.05 11.6 16.75 7 14.85 7"/><path class="cls-2" d="M22.05,10.4a1.86,1.86,0,0,0-.7,1.6v4.4a2.06,2.06,0,0,0,.7,1.7,2.61,2.61,0,0,0,1.8.6,2.44,2.44,0,0,0,1.8-.6,2.41,2.41,0,0,0,.7-1.7V12a1.86,1.86,0,0,0-.7-1.6A2.52,2.52,0,0,0,24,9.8,2.88,2.88,0,0,0,22.05,10.4Zm2.6,1.5v4.7a.76.76,0,0,1-.2.5.85.85,0,0,1-.6.2.68.68,0,0,1-.7-.7V11.9c0-.2.1-.3.2-.5a.73.73,0,0,1,1,0C24.55,11.6,24.65,11.7,24.65,11.9Z" transform="translate(0 0)"/><path class="cls-2" d="M32.65,18.6V10H31v6.5l-.5.5a1.69,1.69,0,0,1-.5.2c-.2,0-.3,0-.3-.1s-.1-.2-.1-.4V10h-1.7v7.1a1.61,1.61,0,0,0,.3,1.1,1,1,0,0,0,.9.4,1.93,1.93,0,0,0,1-.3,3.51,3.51,0,0,0,1-.8v.9h1.6Z" transform="translate(0 0)"/></svg>